<svg xmlns="http://www.w3.org/2000/svg" viewBox="0 0 120 40" fill="none">
  <rect x="1.5" y="1.5" width="117" height="37" rx="9.5" stroke="#FFFFFF" stroke-width="3" opacity="0.65" />
  <path d="M20 10l7 20 6-12 6 12 7-20h6l-10 26h-6l-5.5-11.6L25 36h-6L9 10h6l5 12 5-12Z" fill="#FFFFFF" opacity="0.9" />
  <path d="M78 12h24v4H78z" fill="#FF4A4A" opacity="0.7" />
  <path d="M74 26c0-7 5-12 12-12s12 5 12 12-5 12-12 12S74 33 74 26Zm18 0a6 6 0 10-12 0 6 6 0 0012 0Z" fill="#FFFFFF" opacity="0.85" />
</svg>
